P2
# Created by GIMP version 2.10.30 PNM plug-in
64 64
255
0
0
0
0
0
0
0
0
0
100
100
100
100
100
100
100
100
100
100
100
100
100
100
100
100
100
0
0
0
0
0
0
0
0
0
0
0
0
0
0
0
0
0
0
0
0
0
0
0
0
0
0
0
0
0
0
0
0
0
0
0
0
0
0
0
0
0
0
0
0
0
0
0
100
155
155
155
255
255
0
0
0
0
255
255
255
155
155
155
100
0
0
0
0
0
0
0
0
0
0
0
0
0
0
0
0
0
0
0
0
0
0
0
0
0
0
0
0
0
0
0
0
0
0
0
0
0
0
0
0
0
0
0
0
0
0
0
100
155
155
155
255
255
0
255
255
0
255
255
255
155
155
155
100
0
0
0
0
0
0
0
0
0
0
0
0
0
0
0
0
0
0
0
0
0
0
0
0
0
0
0
0
0
0
0
0
0
0
0
0
0
0
0
0
0
0
0
0
0
0
0
100
155
155
155
255
255
0
0
0
0
255
255
255
155
155
155
100
0
0
0
0
0
0
0
0
0
0
0
0
0
0
0
0
0
0
0
0
0
0
0
0
0
0
0
0
0
0
0
0
0
0
0
0
0
0
0
0
0
0
0
0
0
0
0
100
255
255
255
100
100
100
100
100
100
100
100
100
255
255
255
100
0
100
100
100
100
100
100
100
100
100
100
100
100
100
100
100
100
100
0
0
0
0
0
0
0
0
0
0
0
0
0
0
0
0
0
0
0
0
0
0
0
0
0
0
0
0
0
100
255
255
255
100
0
0
0
0
0
0
0
100
0
255
0
100
0
100
155
155
155
255
255
255
255
255
0
255
255
255
155
155
155
100
0
0
0
0
0
0
0
0
0
0
0
0
0
0
0
0
0
0
0
0
0
0
0
0
0
0
0
0
0
100
0
255
255
100
0
0
0
0
0
0
0
100
0
255
255
100
0
100
155
155
155
255
255
255
255
255
0
255
255
255
155
155
155
100
0
0
0
0
0
0
0
0
0
0
0
0
0
0
0
0
0
0
0
0
0
0
0
0
0
0
0
0
0
100
0
255
255
100
0
100
100
100
100
100
100
100
0
255
255
100
0
100
155
155
155
255
255
255
255
255
255
255
255
255
155
155
155
100
0
0
0
0
0
0
0
0
0
0
0
0
0
0
0
0
0
0
0
0
0
0
0
0
0
0
0
0
0
100
0
0
255
100
0
100
155
155
155
255
255
255
155
155
155
100
0
100
255
255
255
100
100
100
100
100
100
100
100
100
255
255
255
100
0
0
0
0
0
0
0
0
0
0
0
0
0
0
0
0
0
0
0
0
100
100
100
100
100
100
100
0
0
100
0
0
255
100
0
100
155
155
155
0
255
255
155
155
155
100
0
100
255
255
255
100
0
0
0
0
0
0
0
100
255
255
255
100
0
0
0
0
0
0
0
0
0
0
0
0
0
0
0
0
0
0
0
0
0
0
255
155
155
155
100
0
0
100
0
0
255
100
0
100
155
155
155
255
255
255
155
155
155
100
0
100
255
0
255
100
0
0
0
0
0
0
0
100
255
0
255
100
0
0
0
0
0
0
0
0
0
0
0
0
0
0
0
0
0
0
0
0
0
0
255
155
155
155
100
0
0
100
0
0
255
100
0
100
255
255
255
100
100
100
100
100
100
100
0
100
255
255
255
100
0
100
100
100
100
100
100
100
255
255
255
100
0
0
0
0
0
0
0
0
0
0
0
0
0
0
0
0
0
0
0
0
0
0
255
155
155
155
100
0
0
100
0
0
255
100
0
100
255
255
255
100
0
0
0
0
0
0
0
100
255
255
255
100
0
100
155
155
155
255
255
255
155
155
155
100
0
0
0
0
0
0
0
0
0
0
0
0
0
0
0
0
0
0
0
0
100
100
100
255
255
255
100
0
0
100
0
0
255
100
0
100
255
0
0
100
0
0
0
0
100
100
100
100
255
255
255
100
0
100
155
155
155
255
255
255
155
155
155
100
0
0
0
0
0
0
0
0
0
0
0
0
0
0
0
0
0
0
0
0
0
0
100
255
0
255
100
0
0
100
0
0
255
100
0
100
255
255
255
100
0
0
0
0
100
155
155
155
155
155
155
100
0
100
155
155
155
255
255
255
155
155
155
100
0
0
0
0
0
0
0
0
0
0
0
0
0
0
0
0
0
0
0
0
0
0
100
0
0
255
100
0
0
100
255
0
255
100
0
100
255
255
255
100
0
0
0
0
100
155
155
155
155
155
155
100
0
100
255
255
255
100
100
100
100
100
100
100
0
0
0
0
0
0
0
0
0
0
0
0
0
0
0
0
0
0
0
0
0
0
100
255
255
255
100
0
0
100
255
0
0
100
0
100
255
255
255
100
0
0
0
0
100
155
155
155
155
155
155
100
0
100
255
255
255
100
0
0
0
0
0
0
0
0
0
0
0
0
0
0
0
0
0
0
0
0
0
0
0
0
0
0
0
0
100
255
255
255
100
0
0
100
255
255
255
100
0
100
0
0
255
100
0
0
0
0
100
255
255
255
100
100
100
100
0
100
255
255
255
100
0
100
100
100
100
100
100
100
100
100
100
100
100
100
0
0
0
0
0
0
0
0
0
0
0
0
0
0
100
255
0
0
100
0
0
100
0
255
255
100
0
100
255
255
255
100
0
0
0
0
100
255
255
255
100
0
0
0
0
100
0
0
255
100
0
100
155
155
155
255
255
255
255
255
155
155
155
100
0
0
0
0
0
0
0
0
0
0
0
0
0
0
100
255
0
255
100
0
0
100
255
255
0
100
0
100
255
255
255
100
0
0
0
0
100
255
255
0
100
0
0
0
0
100
255
255
255
100
0
100
155
155
155
255
255
0
255
255
155
155
155
100
0
0
0
0
0
0
0
0
0
0
0
0
0
0
100
255
0
255
100
0
0
100
255
0
0
100
0
100
255
255
255
100
0
0
0
0
100
255
255
255
100
0
0
0
0
100
255
255
255
100
0
100
155
155
155
255
255
255
255
255
155
155
155
100
0
0
0
0
0
0
0
0
0
0
0
0
0
0
100
255
255
255
100
0
0
100
255
0
0
100
0
100
255
255
255
100
0
0
0
0
100
255
255
255
100
0
0
0
0
100
255
255
255
100
0
100
255
255
255
100
100
100
100
100
255
255
255
100
0
0
0
0
0
0
0
0
0
0
0
0
0
0
100
255
0
0
100
0
0
100
255
0
0
100
0
100
155
155
155
100
0
0
0
0
100
255
255
255
100
100
100
100
0
100
255
255
255
100
100
100
255
255
255
100
0
0
0
100
255
255
255
100
0
0
0
0
0
0
0
0
0
0
0
0
0
0
100
255
0
255
100
0
0
100
255
0
0
100
0
100
155
155
155
100
0
0
0
0
100
155
155
155
155
155
155
100
0
100
155
155
155
255
0
255
155
155
155
100
0
0
0
100
0
0
255
100
0
0
0
0
0
0
0
0
0
0
0
0
0
0
100
255
255
255
100
100
100
100
255
0
255
100
0
100
155
155
155
100
0
0
0
0
100
155
155
155
155
155
155
100
0
100
155
155
155
255
0
255
155
155
155
100
0
0
0
100
255
255
255
100
0
0
0
0
0
0
0
0
0
0
0
0
0
0
100
155
155
155
0
0
0
0
155
155
155
100
0
100
255
255
255
100
0
0
0
0
100
155
155
155
155
155
155
100
0
100
155
155
155
255
255
255
155
155
155
100
0
0
0
100
255
255
255
100
0
0
0
0
0
0
0
0
0
0
0
0
0
0
100
155
155
155
0
0
255
255
155
155
155
100
0
100
255
255
0
100
0
0
0
0
100
100
100
100
255
255
255
100
0
100
100
100
100
100
100
100
100
100
100
100
0
0
0
100
255
255
255
100
100
100
100
100
100
100
0
0
0
0
0
0
0
0
100
155
155
155
255
255
255
0
155
155
155
100
0
100
255
255
255
100
0
0
0
0
0
0
0
100
255
255
0
100
0
0
0
0
0
0
0
0
0
0
0
0
0
0
0
100
155
155
155
255
255
255
155
155
155
100
0
0
0
0
0
0
0
0
100
100
100
100
100
100
100
100
100
100
100
100
0
100
255
255
255
100
100
100
100
100
100
100
100
100
255
255
255
100
0
0
0
0
0
0
0
0
0
0
0
0
0
0
0
100
155
155
155
255
255
255
155
155
155
100
0
0
0
0
0
0
0
0
0
0
0
0
0
0
0
0
0
0
0
0
0
100
155
155
155
255
255
255
255
0
255
255
255
255
155
155
155
100
0
0
0
0
0
0
0
0
0
0
0
0
0
0
0
100
155
155
155
255
255
255
155
155
155
100
0
0
0
0
0
0
0
0
0
0
0
0
0
0
0
0
0
0
0
0
0
100
155
155
155
255
255
255
255
0
255
255
255
255
155
155
155
100
0
0
0
0
0
0
0
0
0
0
0
0
0
0
0
100
100
100
100
100
100
100
255
255
255
100
0
0
0
0
0
0
0
0
0
0
0
0
0
0
0
0
0
0
0
0
0
100
155
155
155
255
255
255
255
255
255
255
255
255
155
155
155
100
0
0
0
0
0
0
0
0
0
0
0
0
0
0
0
0
0
0
0
0
0
100
255
255
0
100
0
0
0
0
0
0
0
0
0
0
0
0
0
0
0
0
0
0
0
0
0
100
100
100
100
100
100
100
100
100
100
100
100
100
100
100
100
100
0
0
0
0
0
0
0
0
0
0
0
0
0
0
0
0
0
0
0
0
0
100
255
0
0
100
0
0
0
0
0
0
0
0
0
0
0
0
0
0
0
0
0
0
0
0
0
0
0
0
0
0
0
0
0
0
0
0
0
0
0
0
0
0
0
0
0
0
0
0
0
0
0
0
0
0
0
0
0
0
0
0
0
0
0
100
255
255
255
100
0
0
0
0
0
0
0
0
0
0
0
0
100
100
100
100
100
100
100
100
100
100
100
100
100
100
100
100
100
100
100
100
100
100
100
100
100
100
100
100
100
100
100
100
100
100
100
100
100
100
100
100
100
100
100
100
100
0
0
100
255
255
255
100
0
0
0
0
0
0
0
0
0
0
0
0
100
155
155
155
255
255
255
255
255
255
255
0
255
255
255
255
255
255
255
255
255
255
255
255
255
0
0
255
255
0
0
255
255
255
255
255
255
255
255
255
255
155
155
155
100
0
0
100
255
255
255
100
0
0
0
0
0
0
0
0
0
0
0
0
100
155
155
155
255
255
255
0
255
255
255
255
255
255
255
255
255
0
0
255
255
255
255
255
255
255
255
255
255
0
0
255
255
255
255
0
255
255
255
255
255
155
155
155
100
0
0
100
255
255
255
100
0
0
0
0
0
0
0
0
0
0
0
0
100
155
155
155
255
255
255
255
255
255
255
0
255
255
255
255
255
255
0
255
255
255
255
255
255
0
0
255
255
255
255
255
255
255
255
0
0
255
255
255
255
155
155
155
100
0
0
100
255
255
255
100
0
0
0
0
0
0
0
0
0
0
0
0
100
255
255
255
100
100
100
100
100
100
100
100
100
100
100
100
100
100
100
100
100
100
100
100
100
100
100
100
100
100
100
100
100
100
100
100
100
100
100
100
100
255
255
255
100
0
0
100
255
0
255
100
0
0
0
0
0
0
0
0
0
0
0
0
100
255
0
255
100
0
0
0
0
0
0
0
0
0
0
0
0
0
0
0
0
0
0
0
0
0
0
0
0
0
0
0
0
0
0
0
0
0
0
0
100
255
255
255
100
0
0
100
255
255
255
100
0
0
0
0
0
0
0
0
0
0
0
0
100
255
0
255
100
0
0
0
0
0
0
0
0
0
0
0
0
0
0
0
0
0
0
0
0
0
0
0
0
0
0
0
0
0
0
0
0
0
0
0
100
255
255
255
100
0
0
100
255
255
255
100
0
0
0
0
0
0
0
0
0
0
0
0
100
255
255
255
100
100
100
100
100
100
100
100
100
100
100
100
100
100
0
0
0
0
0
0
0
0
0
0
0
0
0
0
0
0
0
0
0
0
0
0
100
255
255
255
100
0
0
100
255
255
255
100
0
0
0
0
0
0
0
0
0
0
0
0
100
155
155
155
255
255
255
255
255
255
255
0
255
255
155
155
155
100
0
0
0
0
0
0
0
0
0
0
0
0
0
0
0
0
0
0
0
0
0
0
100
0
255
255
100
100
100
100
255
255
255
100
0
0
0
0
0
0
0
0
0
0
0
0
100
155
155
155
255
255
0
255
255
255
255
0
255
255
155
155
155
100
0
0
0
0
0
0
0
0
0
0
0
0
0
0
0
0
0
0
0
0
0
0
100
155
155
155
255
255
255
255
155
155
155
100
0
0
0
0
0
0
0
0
0
0
0
0
100
155
155
155
255
255
0
255
255
255
255
255
255
255
155
155
155
100
0
0
0
0
0
0
0
0
0
0
0
0
0
0
0
0
0
0
0
0
0
0
100
155
155
155
255
0
255
255
155
155
155
100
0
0
0
0
0
0
0
0
0
0
0
0
100
100
100
100
100
100
100
100
100
100
100
100
100
100
255
255
255
100
0
0
0
0
0
0
0
0
0
0
0
0
0
0
0
0
0
0
0
0
0
0
100
155
155
155
255
255
255
255
155
155
155
100
0
0
0
0
0
0
0
0
0
0
0
0
0
0
0
0
0
0
0
0
0
0
0
0
0
100
255
255
255
100
0
0
0
0
0
0
0
0
0
0
0
0
0
0
0
0
0
0
0
0
0
0
100
100
100
100
100
100
100
100
100
100
100
100
0
0
0
0
0
0
0
0
0
0
0
0
0
0
0
0
0
0
0
0
0
0
0
0
0
100
0
0
255
100
0
0
0
0
0
0
0
0
0
0
0
0
0
0
0
0
0
0
0
0
0
0
0
0
0
0
0
0
0
0
0
0
0
0
0
0
0
0
0
0
0
0
0
0
0
0
0
0
0
0
0
0
0
0
0
0
0
0
0
100
255
255
255
100
0
0
0
0
0
0
0
0
0
0
0
0
0
0
0
0
0
0
0
0
0
0
0
0
0
0
0
0
0
0
0
0
0
0
0
0
0
0
0
0
0
0
0
0
0
0
0
0
0
0
0
0
0
0
0
0
0
0
0
100
255
255
255
100
100
100
100
100
100
100
100
100
100
100
100
100
100
100
100
100
0
0
0
0
0
0
0
0
0
0
0
0
0
0
0
0
0
0
0
0
0
0
0
0
0
0
0
0
0
0
0
0
0
0
0
0
0
0
0
0
0
0
0
100
155
155
155
255
255
255
255
255
255
255
255
255
255
255
255
255
155
155
155
100
0
0
0
0
0
0
0
0
0
0
0
0
0
0
0
0
0
0
0
0
0
0
0
0
0
0
0
0
0
0
0
0
0
0
0
0
0
0
0
0
0
0
0
100
155
155
155
255
255
0
255
255
255
255
255
255
255
255
255
255
155
155
155
100
0
0
0
0
0
0
0
0
0
0
0
0
0
0
0
0
0
0
0
0
0
0
0
0
0
0
0
0
0
0
0
0
0
0
0
0
0
0
0
0
0
0
0
100
155
155
155
255
255
255
255
255
255
255
255
255
255
255
255
255
155
155
155
100
0
0
0
0
0
0
0
0
0
0
0
0
0
0
0
0
0
0
0
0
0
0
0
0
0
0
0
0
0
0
0
0
0
0
0
0
0
0
0
0
0
0
0
100
100
100
100
100
100
100
100
100
100
100
100
100
100
100
100
100
255
255
255
100
0
0
0
0
0
0
0
0
0
0
0
0
0
0
0
0
0
0
0
0
0
0
0
0
0
0
0
0
0
0
0
0
0
0
0
0
0
0
0
0
0
0
0
0
0
0
0
0
0
0
0
0
0
0
0
0
0
0
0
100
255
255
255
100
0
0
0
0
0
0
0
0
0
0
0
0
0
0
0
0
0
0
0
0
0
0
0
0
0
0
0
0
0
0
0
0
0
0
0
0
0
0
0
0
0
0
0
0
0
0
0
0
0
0
0
0
0
0
0
0
0
0
0
100
255
255
255
100
0
0
0
0
0
0
0
0
0
0
0
0
0
0
0
0
0
0
0
0
0
0
0
0
0
0
0
0
0
0
0
0
0
0
0
0
0
0
0
0
0
0
0
0
0
0
0
0
0
0
0
0
0
0
0
0
0
0
0
100
255
255
255
100
0
0
0
0
0
0
0
0
0
0
0
0
0
0
0
0
0
0
0
0
0
0
0
0
0
0
0
0
0
0
0
0
0
0
0
0
0
0
0
0
0
0
0
0
0
0
0
0
0
0
0
0
0
0
0
0
0
0
0
100
255
255
255
100
0
0
0
0
0
0
0
0
0
0
0
0
0
0
0
0
0
0
0
0
0
0
0
0
100
100
100
100
100
100
100
100
100
100
100
100
100
100
100
100
100
100
100
100
100
100
100
100
100
100
100
100
100
100
100
100
100
100
100
100
255
255
255
100
0
0
0
0
0
0
0
0
0
0
0
0
0
0
0
0
0
0
0
0
0
0
0
0
255
255
255
255
255
255
255
255
255
255
255
255
255
255
255
255
255
255
255
255
255
255
255
255
255
255
255
255
255
255
255
255
255
255
255
255
155
155
155
100
0
0
0
0
0
0
0
0
0
0
0
0
0
0
0
0
0
0
0
0
0
0
0
0
255
255
255
255
255
255
255
255
255
255
255
255
255
255
255
255
255
255
255
255
255
255
255
255
255
255
255
255
255
255
255
255
255
255
255
255
155
155
155
100
0
0
0
0
0
0
0
0
0
0
0
0
0
0
0
0
0
0
0
0
0
0
0
0
255
255
255
255
255
255
255
255
255
255
255
255
255
255
255
255
255
255
255
255
255
255
255
255
255
255
255
255
255
255
255
255
255
255
255
255
155
155
155
100
0
0
0
0
0
0
0
0
0
0
0
0
0
0
0
0
0
0
0
0
0
0
0
0
100
100
100
100
100
100
100
100
100
100
100
100
100
100
100
100
100
100
100
100
100
100
100
100
100
100
100
100
100
100
100
100
100
100
100
100
100
100
100
100
0
0
0
0
0
0
0
0
0
0
0
0
0
0
0
0
0
0
0
0
0
0
0
0
0
0
0
0
0
0
0
0
0
0
0
0
0
0
0
0
0
0
0
0
0
0
0
0
0
0
0
0
0
0
0
0
0
0
0
0
0
0
0
0
0
0
0
0
0
0
0
0
0
0
0
0
0
0
0
0
0
0
0
0
0
0
0
0
